<?xml version="1.0" encoding="UTF-8" standalone="no"?>
<!-- Created with Inkscape (http://www.inkscape.org/) -->

<svg
   xmlns:dc="http://purl.org/dc/elements/1.1/"
   xmlns:cc="http://creativecommons.org/ns#"
   xmlns:rdf="http://www.w3.org/1999/02/22-rdf-syntax-ns#"
   xmlns:svg="http://www.w3.org/2000/svg"
   xmlns="http://www.w3.org/2000/svg"
   xmlns:sodipodi="http://sodipodi.sourceforge.net/DTD/sodipodi-0.dtd"
   xmlns:inkscape="http://www.inkscape.org/namespaces/inkscape"
   width="180.62221mm"
   height="101.59999mm"
   viewBox="0 0 639.99997 359.99997"
   id="svg2"
   version="1.1"
   inkscape:version="0.91 r13725"
   sodipodi:docname="drawing.svg">
  <defs
     id="defs4" />
  <sodipodi:namedview
     id="base"
     pagecolor="#ffffff"
     bordercolor="#666666"
     borderopacity="1.0"
     inkscape:pageopacity="0.0"
     inkscape:pageshadow="2"
     inkscape:zoom="1.3931276"
     inkscape:cx="317.70847"
     inkscape:cy="152.26699"
     inkscape:document-units="px"
     inkscape:current-layer="layer1"
     showgrid="false"
     fit-margin-top="0"
     fit-margin-left="0"
     fit-margin-right="0"
     fit-margin-bottom="0"
     inkscape:window-width="1920"
     inkscape:window-height="1017"
     inkscape:window-x="-8"
     inkscape:window-y="-8"
     inkscape:window-maximized="1" />
  <metadata
     id="metadata7">
    <rdf:RDF>
      <cc:Work
         rdf:about="">
        <dc:format>image/svg+xml</dc:format>
        <dc:type
           rdf:resource="http://purl.org/dc/dcmitype/StillImage" />
        <dc:title></dc:title>
      </cc:Work>
    </rdf:RDF>
  </metadata>
  <g
     inkscape:label="Layer 1"
     inkscape:groupmode="layer"
     id="layer1"
     transform="translate(-231.73161,-320.33882)">
    <rect
       style="opacity:1;fill:#eeeeee;fill-opacity:1;fill-rule:nonzero;stroke:none;stroke-width:8;stroke-linecap:round;stroke-linejoin:miter;stroke-miterlimit:4;stroke-dasharray:none;stroke-dashoffset:0;stroke-opacity:1"
       id="rect4149"
       width="640"
       height="360"
       x="231.73161"
       y="320.33881" />
    <path
       style="fill:#000000"
       d="m 491.73164,524.18015 0,-32.30953 23.32815,0 23.32813,0 0,8.04821 0,8.04826 -14.3468,0 -14.34681,0 0,4.0824 0,4.08245 14.34984,0 14.34984,0 -0.0613,8.1065 -0.0613,8.10655 -12.94712,0.14177 c -7.12092,0.0779 -13.39328,0.15671 -13.93857,0.17494 l -0.99145,0.0328 0,11.89728 0,11.89737 -9.33126,0 -9.33125,0 0,-32.30946 z m 130.82232,22.68659 c -0.0661,-9.33891 -0.0828,-9.65037 -0.57023,-10.556 -0.67017,-1.24526 -1.34498,-1.84025 -2.88108,-2.5403 -2.13205,-0.97177 -3.61737,-1.0719 -15.92079,-1.07376 l -11.60575,0 0,-8.16486 0,-8.16485 13.35537,0 c 15.16353,0 14.49454,0.0796 15.55896,-1.8611 0.83744,-1.52684 0.80162,-3.0918 -0.10406,-4.54668 -1.30302,-2.09305 -0.49625,-1.98993 -15.56791,-1.98993 l -13.24236,0 0,-8.05627 0,-8.05635 18.25428,0.0687 18.25427,0.0695 1.51634,0.54372 c 3.77434,1.35347 6.53755,3.39639 8.6364,6.38506 2.26744,3.22869 3.30376,6.73896 3.32477,11.2618 0.0152,3.25918 -0.39206,5.20839 -1.61324,7.72208 -1.84393,3.79559 -5.93137,6.84307 -10.46457,7.80212 -0.76984,0.16284 -1.4844,0.36946 -1.58793,0.45914 -0.10353,0.0896 0.63131,0.23606 1.63297,0.32543 1.00166,0.0893 3.38097,0.46796 5.28736,0.84144 3.9708,0.77777 4.54779,1.09089 5.6378,3.05891 l 0.69387,1.25274 0.0661,12.42226 0.0661,12.42225 -9.32933,0 -9.32931,0 -0.0681,-9.62287 z m -79.96696,1.22479 0,-8.16494 22.16174,0 22.16174,0 0,8.16494 0,8.16485 -22.16174,0 -22.16174,0 0,-8.16485 z m 0,-23.5615 0,-8.16486 22.16174,0 22.16174,0 0,8.16486 0,8.16492 -22.16174,0 -22.16174,0 0,-8.16492 z m -0.23328,-24.72779 0,-8.16485 22.39502,0 22.39502,0 0,8.16485 0,8.16485 -22.39502,0 -22.39502,0 0,-8.16485 z m 24.72784,-36.0927 0,-6.07023 0.87481,-0.1446 c 0.48114,-0.0795 1.3307,-0.14579 1.88792,-0.14713 2.68551,-0.007 7.50152,-1.40003 11.24393,-3.25269 13.56206,-6.71393 24.39002,-25.92918 27.15466,-48.18848 0.20715,-1.66799 0.43246,-3.47881 0.50065,-4.02409 l 0.12399,-0.99149 16.43206,0 c 13.51443,0 16.43206,0.0553 16.43206,0.31019 0,0.54948 -1.61092,6.24151 -2.71814,9.60434 -6.12479,18.60188 -16.39862,34.3978 -28.95009,44.51052 -4.07738,3.28511 -7.6196,5.54757 -12.30534,7.8595 -8.57156,4.22908 -16.36094,6.15146 -26.18585,6.46226 l -4.49066,0.14213 0,-6.07023 z m -39.89114,-34.475 0,-28.11041 -17.61275,0 c -14.52286,0 -17.61275,-0.0546 -17.61275,-0.31109 0,-0.53939 1.80785,-6.93087 2.81761,-9.96139 7.41693,-22.25966 20.2449,-39.69371 36.39432,-49.46199 9.82411,-5.94237 20.96635,-9.04619 32.58044,-9.07571 l 3.09099,-0.008 0,6.35972 0,6.35965 -19.71229,13.60564 -19.71228,13.6055 0,14.44379 0,14.44372 3.23854,0 3.23851,0 0.16188,1.80796 c 1.15596,12.91113 9.71703,23.96026 21.8941,28.25696 2.56347,0.90451 6.018,1.61862 8.7779,1.81454 l 2.11364,0.14999 0,-15.89808 0,-15.89807 -16.33134,0 -16.33133,0 0.14171,-1.69132 c 1.04571,-12.47987 8.63698,-23.0804 20.0007,-27.92913 3.43102,-1.46399 8.33054,-2.57235 11.37074,-2.57235 l 1.14952,0 0,15.8631 0,15.8631 16.36435,0 16.36436,0 -0.13652,-1.92455 c -0.36948,-5.20944 -2.30013,-10.71501 -5.41734,-15.44843 -1.67056,-2.53672 -5.17302,-6.21857 -7.76878,-8.16672 -4.73,-3.54995 -11.2437,-5.96591 -17.13158,-6.35426 l -2.04121,-0.13459 0,-12.1306 0,-12.1305 2.22689,0.15655 c 12.36768,0.86931 23.15164,9.31955 30.52668,23.9205 4.18688,8.28904 7.15784,18.33061 8.28828,28.01356 0.1423,1.21889 0.31545,2.66233 0.38479,3.20762 l 0.12605,0.99142 -4.41652,0 -4.41652,0 -0.16243,1.92461 c -0.97387,11.53942 -8.07004,21.88484 -18.44369,26.88884 -3.991,1.92514 -7.83003,2.96535 -12.3176,3.3375 l -1.91258,0.15858 -0.0604,12.07229 -0.0605,12.07231 -19.82684,0 -19.82681,0 0,-28.11042 z"
       id="path4147"
       inkscape:connector-curvature="0" />
    <rect
       style="opacity:1;fill:#eeeeee;fill-opacity:1;fill-rule:nonzero;stroke:none;stroke-width:8;stroke-linecap:round;stroke-linejoin:miter;stroke-miterlimit:4;stroke-dasharray:none;stroke-dashoffset:0;stroke-opacity:1"
       id="rect4151"
       width="1.4285715"
       height="2.8571429"
       x="124.28571"
       y="445.93362" />
    <text
       xml:space="preserve"
       style="font-style:normal;font-weight:normal;font-size:14.88232231px;line-height:125%;font-family:sans-serif;letter-spacing:0px;word-spacing:0px;fill:#000000;fill-opacity:1;stroke:none;stroke-width:1px;stroke-linecap:butt;stroke-linejoin:miter;stroke-opacity:1"
       x="551.55151"
       y="604.01208"
       id="text4153"
       sodipodi:linespacing="125%"><tspan
         sodipodi:role="line"
         id="tspan4155"
         x="551.55151"
         y="604.01208"
         style="font-style:normal;font-variant:normal;font-weight:normal;font-stretch:normal;font-size:43.40677643px;font-family:'Sony Sketch EF';-inkscape-font-specification:'Sony Sketch EF';text-align:center;text-anchor:middle">Došlo je do pogreške,</tspan><tspan
         sodipodi:role="line"
         x="551.55151"
         y="658.27057"
         id="tspan4157"
         style="font-style:normal;font-variant:normal;font-weight:normal;font-stretch:normal;font-size:43.40677643px;font-family:'Sony Sketch EF';-inkscape-font-specification:'Sony Sketch EF';text-align:center;text-anchor:middle">pokušajte ponovno</tspan></text>
  </g>
</svg>
